<svg
  width="64"
  height="64"
  viewBox="0 0 64 64"
  fill="none"
  xmlns="http://www.w3.org/2000/svg"
>
  <circle cx="32" cy="32" r="31" stroke="#4CAF50" stroke-width="2" />
  <path
    d="M42 20H22C19.7909 20 18 21.7909 18 24V40C18 42.2091 19.7909 44 22 44H42C44.2091 44 46 42.2091 46 40V24C46 21.7909 44.2091 20 42 20Z"
    fill="#4CAF50"
  />
  <path
    d="M32 30C33.6569 30 35 28.6569 35 27C35 25.3431 33.6569 24 32 24C30.3431 24 29 25.3431 29 27C29 28.6569 30.3431 30 32 30Z"
    fill="white"
  />
  <path
    d="M28 36C28 34.8954 28.8954 34 30 34H34C35.1046 34 36 34.8954 36 36V38H28V36Z"
    fill="white"
  />
</svg>
